#!OML:ASF I:\Actors\actors\Patient Classification 1\Patient 1\Session 1\Subject1.ASF
:FULLY-SPECIFIED
:DEGREES
303
root 0.503164 17.4935 9.4092 9.14979 -4.49 -8.50638
lowerback 1.13736 1.25723 6.35629
upperback -6.16948 2.16737 2.92373
thorax -6.98835 0.802406 -0.640494
lowerneck -10.7693 -1.88337 0.249477
upperneck 29.4753 -3.09703 0.931682
head 11.3434 -1.27448 -0.0986899
rclavicle 2.16924e-014 5.87409e-014
rhumerus -3.71684 41.8984 -78.4901
rradius 96.9913
rwrist 38.5202
rhand 3.89683 -22.6946
rfingers 7.12502
rthumb 29.3172 -50.4034
lclavicle 2.16924e-014 5.87409e-014
lhumerus -36.913 -20.4576 101.664
lradius 96.4414
lwrist 22.5472
lhand -37.5873 -11.1201
lfingers 7.12502
lthumb -10.6412 18.5905
rfemur -5.69567 20.4024 25.0529
rtibia 6.87791
rfoot -12.9959 -20.0982
rtoes -1.76617
lfemur 7.23066 -42.4881 -13.813
ltibia -4.08592
lfoot -30.3253 52.6715
ltoes 15.9256
304
root 0.503979 17.4966 9.40662 9.31376 -4.51361 -8.78973
lowerback 1.05662 1.28201 6.57464
upperback -6.06472 2.20067 2.9991
thorax -6.82474 0.814991 -0.682448
lowerneck -10.8288 -1.86501 0.3465
upperneck 29.4248 -3.10236 0.96597
head 11.3351 -1.26199 -0.103998
rclavicle 1.70893e-014 -1.03467e-013
rhumerus -1.19914 43.9122 -76.0273
rradius 95.825
rwrist 39.8252
rhand 4.26755 -23.3098
rfingers 7.12502
rthumb 29.6711 -50.9561
lclavicle 1.70893e-014 -1.03467e-013
lhumerus -36.5675 -21.0398 101.554
lradius 96.4074
lwrist 22.6078
lhand -38.1635 -12.014
lfingers 7.12502
lthumb -11.197 17.6672
rfemur -5.90139 20.2204 25.3205
rtibia 6.92994
rfoot -12.9208 -19.8736
rtoes -2.12131
lfemur 7.14792 -42.6832 -13.4548
ltibia -4.13658
lfoot -30.6014 52.8847
ltoes 16.0412
305
root 0.507728 17.4933 9.39473 9.32086 -4.57081 -9.25701
lowerback 1.33099 1.28522 7.05033
upperback -5.9262 2.25085 3.09667
thorax -6.82503 0.81833 -0.852651
lowerneck -10.9305 -1.83528 0.539115
upperneck 29.3393 -3.07035 0.855536
head 11.317 -1.24008 -0.174337
rclavicle 1.21756e-014 -1.94809e-014
rhumerus 0.194671 45.1694 -74.6399
rradius 94.7365
rwrist 41.6984
rhand 4.84631 -23.1285
rfingers 7.12502
rthumb 30.2234 -50.6751
lclavicle 1.21756e-014 -1.94809e-014
lhumerus -36.3142 -21.5387 101.395
lradius 96.5169
lwrist 22.6701
lhand -38.3927 -12.8458
lfingers 7.12502
lthumb -11.418 16.8233
rfemur -5.95373 20.0312 25.856
rtibia 7.01176
rfoot -12.8153 -19.6058
rtoes -2.29275
lfemur 7.29649 -42.7949 -13.0229
ltibia -4.21822
lfoot -30.9407 53.0297
ltoes 16.3126
306
root 0.510543 17.4896 9.38206 9.30597 -4.6066 -9.65512
lowerback 1.64394 1.27331 7.43138
upperback -5.76869 2.28054 3.18474
thorax -6.83011 0.817057 -0.980002
lowerneck -11.0787 -1.79486 0.740066
upperneck 29.1922 -3.00937 0.695522
head 11.2835 -1.21063 -0.26061
rclavicle 9.87711e-016 -2.16675e-014
rhumerus 1.72701 46.4735 -73.1378
rradius 93.5918
rwrist 43.403
rhand 5.7759 -23.1238
rfingers 7.12502
rthumb 31.1098 -50.5043
lclavicle 9.87711e-016 -2.16675e-014
lhumerus -36.0709 -21.8346 101.159
lradius 96.7002
lwrist 22.2528
lhand -38.1275 -13.0992
lfingers 7.12502
lthumb -11.1622 16.5839
rfemur -5.9488 19.8891 26.3261
rtibia 7.04322
rfoot -12.7766 -19.3988
rtoes -2.16625
lfemur 7.48357 -42.9693 -12.7027
ltibia -4.30056
lfoot -31.1828 53.269
ltoes 16.3958
307
root 0.505947 17.4957 9.37346 9.48132 -4.7314 -9.2796
lowerback 1.65035 1.25893 6.81865
upperback -5.69227 2.22157 3.12282
thorax -6.76631 0.822839 -0.702838
lowerneck -11.1904 -1.7243 0.88899
upperneck 29.0382 -2.91304 0.603075
head 11.2425 -1.16311 -0.308065
rclavicle -7.81162e-015 -4.49253e-014
rhumerus 3.98996 48.3118 -70.8572
rradius 92.5398
rwrist 44.3153
rhand 7.39697 -23.5407
rfingers 7.12502
rthumb 32.6535 -50.6133
lclavicle -7.81162e-015 -4.49253e-014
lhumerus -35.9497 -22.0395 100.951
lradius 96.9525
lwrist 21.9366
lhand -37.8972 -13.2705
lfingers 7.12502
lthumb -10.9401 16.4245
rfemur -6.24708 19.9636 25.7679
rtibia 7.00987
rfoot -12.7206 -19.4196
rtoes -1.91233
lfemur 7.22147 -43.3861 -13.0204
ltibia -4.19853
lfoot -31.817 53.6113
ltoes 16.8482
308
root 0.503888 17.5029 9.36511 9.72759 -4.83785 -8.95555
lowerback 1.5797 1.23884 6.32189
upperback -5.64486 2.15479 3.04104
thorax -6.68598 0.817242 -0.507638
lowerneck -11.2261 -1.64989 1.03627
upperneck 28.8188 -2.83329 0.594079
head 11.1633 -1.1146 -0.325508
rclavicle 2.91344e-015 -6.08281e-014
rhumerus 5.92598 50.0322 -68.7708
rradius 91.3605
rwrist 44.5941
rhand 8.49868 -23.4196
rfingers 7.12502
rthumb 33.701 -50.2692
lclavicle 2.91344e-015 -6.08281e-014
lhumerus -35.9379 -22.2997 100.762
lradius 97.254
lwrist 21.9276
lhand -37.9034 -13.4885
lfingers 7.12502
lthumb -10.9461 16.2061
rfemur -6.63121 19.9258 25.2195
rtibia 6.97383
rfoot -12.6355 -19.3247
rtoes -1.61562
lfemur 6.76905 -43.6227 -13.1193
ltibia -4.09563
lfoot -32.3631 53.7461
ltoes 17.416
309
root 0.503698 17.5074 9.35595 9.93724 -4.98261 -9.09606
lowerback 1.62774 1.27062 6.3651
upperback -5.58312 2.19911 3.0276
thorax -6.64339 0.83837 -0.549695
lowerneck -11.3279 -1.61979 1.11339
upperneck 28.65 -2.83818 0.704432
head 11.1204 -1.09668 -0.299398
rclavicle -2.12917e-014 1.87852e-014
rhumerus 7.75363 51.5993 -66.8254
rradius 90.1593
rwrist 44.3865
rhand 8.63444 -23.2578
rfingers 7.12502
rthumb 33.83 -50.0792
lclavicle -2.12917e-014 1.87852e-014
lhumerus -35.9018 -22.6231 100.562
lradius 97.4946
lwrist 21.8727
lhand -37.7599 -13.5888
lfingers 7.12502
lthumb -10.8076 16.1131
rfemur -6.94098 19.8298 25.2553
rtibia 7.03397
rfoot -12.6241 -19.0362
rtoes -1.3755
lfemur 6.50499 -43.5935 -12.7505
ltibia -4.14647
lfoot -32.8344 53.7484
ltoes 17.9831
310
root 0.498503 17.511 9.3491 10.1287 -5.25162 -9.21249
lowerback 1.71956 1.35986 6.29886
upperback -5.5484 2.31964 2.99389
thorax -6.65285 0.900649 -0.558848
lowerneck -11.486 -1.62463 1.02473
upperneck 28.627 -2.91601 1.00976
head 11.1511 -1.10377 -0.184808
rclavicle 1.0527e-014 -3.35449e-015
rhumerus 9.13081 52.9017 -65.2421
rradius 89.3763
rwrist 44.409
rhand 8.7487 -23.2027
rfingers 7.12502
rthumb 33.9386 -50.0001
lclavicle 1.0527e-014 -3.35449e-015
lhumerus -35.894 -22.9426 100.383
lradius 97.6376
lwrist 21.6277
lhand -37.5735 -13.6932
lfingers 7.12502
lthumb -10.6279 16.0181
rfemur -7.23263 19.8541 25.2854
rtibia 7.11475
rfoot -12.6452 -18.7628
rtoes -1.3107
lfemur 6.38597 -43.5761 -12.5094
ltibia -4.22919
lfoot -33.4817 53.843
ltoes 18.5605
311
root 0.492708 17.5131 9.34373 10.2831 -5.46611 -9.27076
lowerback 1.83323 1.44916 6.20619
upperback -5.52097 2.43859 2.91223
thorax -6.68149 0.961527 -0.604262
lowerneck -11.5577 -1.66096 0.93211
upperneck 28.5257 -3.04393 1.35008
head 11.1358 -1.1313 -0.0619206
rclavicle 7.6931e-015 2.26366e-014
rhumerus 9.95419 53.8233 -64.168
rradius 89.109
rwrist 44.6888
rhand 9.1685 -23.3221
rfingers 7.12502
rthumb 34.3373 -50.0303
lclavicle 7.6931e-015 2.26366e-014
lhumerus -35.8792 -23.267 100.182
lradius 97.7126
lwrist 21.2403
lhand -37.4549 -13.7932
lfingers 7.12502
lthumb -10.5135 15.9238
rfemur -7.43751 19.8781 25.2726
rtibia 7.10261
rfoot -12.6388 -18.5905
rtoes -1.43885
lfemur 6.31224 -43.6987 -12.3902
ltibia -4.26319
lfoot -34.0694 54.0285
ltoes 18.9584
